<svg xmlns="http://www.w3.org/2000/svg" xmlns:xlink="http://www.w3.org/1999/xlink" width="1366" zoomAndPan="magnify" viewBox="0 0 1024.5 576" height="768" preserveAspectRatio="xMidYMid meet" version="1.0"><defs><g/><clipPath id="b616455337"><path d="M 0 0.140625 L 1024 0.140625 L 1024 575.859375 L 0 575.859375 Z M 0 0.140625 " clip-rule="nonzero"/></clipPath><radialGradient gradientTransform="matrix(1, 0, 0, 1, 0, 0.140508)" gradientUnits="userSpaceOnUse" r="587.372852" cx="512.000122" id="7dd8758277" cy="287.859512" fx="512.000122" fy="287.859512"><stop stop-opacity="1" stop-color="rgb(99.989319%, 99.806213%, 99.821472%)" offset="0"/><stop stop-opacity="1" stop-color="rgb(99.972534%, 99.467468%, 99.510193%)" offset="0.015625"/><stop stop-opacity="1" stop-color="rgb(99.958801%, 99.179077%, 99.243164%)" offset="0.0273438"/><stop stop-opacity="1" stop-color="rgb(99.945068%, 98.88916%, 98.976135%)" offset="0.0390625"/><stop stop-opacity="1" stop-color="rgb(99.931335%, 98.599243%, 98.710632%)" offset="0.0507812"/><stop stop-opacity="1" stop-color="rgb(99.917603%, 98.309326%, 98.443604%)" offset="0.0625"/><stop stop-opacity="1" stop-color="rgb(99.90387%, 98.020935%, 98.176575%)" offset="0.0742188"/><stop stop-opacity="1" stop-color="rgb(99.890137%, 97.731018%, 97.911072%)" offset="0.0859375"/><stop stop-opacity="1" stop-color="rgb(99.876404%, 97.441101%, 97.644043%)" offset="0.0976562"/><stop stop-opacity="1" stop-color="rgb(99.862671%, 97.151184%, 97.377014%)" offset="0.109375"/><stop stop-opacity="1" stop-color="rgb(99.848938%, 96.862793%, 97.109985%)" offset="0.121094"/><stop stop-opacity="1" stop-color="rgb(99.835205%, 96.572876%, 96.844482%)" offset="0.132812"/><stop stop-opacity="1" stop-color="rgb(99.821472%, 96.282959%, 96.577454%)" offset="0.144531"/><stop stop-opacity="1" stop-color="rgb(99.807739%, 95.993042%, 96.310425%)" offset="0.15625"/><stop stop-opacity="1" stop-color="rgb(99.794006%, 95.703125%, 96.043396%)" offset="0.167969"/><stop stop-opacity="1" stop-color="rgb(99.780273%, 95.414734%, 95.777893%)" offset="0.179688"/><stop stop-opacity="1" stop-color="rgb(99.765015%, 95.124817%, 95.510864%)" offset="0.191406"/><stop stop-opacity="1" stop-color="rgb(99.751282%, 94.8349%, 95.243835%)" offset="0.203125"/><stop stop-opacity="1" stop-color="rgb(99.737549%, 94.544983%, 94.978333%)" offset="0.214844"/><stop stop-opacity="1" stop-color="rgb(99.723816%, 94.256592%, 94.711304%)" offset="0.226562"/><stop stop-opacity="1" stop-color="rgb(99.710083%, 93.966675%, 94.444275%)" offset="0.238281"/><stop stop-opacity="1" stop-color="rgb(99.69635%, 93.676758%, 94.177246%)" offset="0.25"/><stop stop-opacity="1" stop-color="rgb(99.685669%, 93.435669%, 93.955994%)" offset="0.261719"/><stop stop-opacity="1" stop-color="rgb(99.676514%, 93.241882%, 93.777466%)" offset="0.269531"/><stop stop-opacity="1" stop-color="rgb(99.667358%, 93.049622%, 93.600464%)" offset="0.277344"/><stop stop-opacity="1" stop-color="rgb(99.658203%, 92.855835%, 93.423462%)" offset="0.285156"/><stop stop-opacity="1" stop-color="rgb(99.649048%, 92.663574%, 93.244934%)" offset="0.292969"/><stop stop-opacity="1" stop-color="rgb(99.639893%, 92.469788%, 93.067932%)" offset="0.300781"/><stop stop-opacity="1" stop-color="rgb(99.630737%, 92.277527%, 92.889404%)" offset="0.308594"/><stop stop-opacity="1" stop-color="rgb(99.621582%, 92.08374%, 92.712402%)" offset="0.316406"/><stop stop-opacity="1" stop-color="rgb(99.612427%, 91.891479%, 92.533875%)" offset="0.324219"/><stop stop-opacity="1" stop-color="rgb(99.603271%, 91.697693%, 92.356873%)" offset="0.332031"/><stop stop-opacity="1" stop-color="rgb(99.594116%, 91.505432%, 92.178345%)" offset="0.339844"/><stop stop-opacity="1" stop-color="rgb(99.584961%, 91.311646%, 92.001343%)" offset="0.347656"/><stop stop-opacity="1" stop-color="rgb(99.575806%, 91.119385%, 91.822815%)" offset="0.355469"/><stop stop-opacity="1" stop-color="rgb(99.56665%, 90.925598%, 91.645813%)" offset="0.363281"/><stop stop-opacity="1" stop-color="rgb(99.555969%, 90.733337%, 91.467285%)" offset="0.371094"/><stop stop-opacity="1" stop-color="rgb(99.542236%, 90.44342%, 91.200256%)" offset="0.378906"/><stop stop-opacity="1" stop-color="rgb(99.523926%, 90.055847%, 90.844727%)" offset="0.394531"/><stop stop-opacity="1" stop-color="rgb(99.505615%, 89.6698%, 90.489197%)" offset="0.410156"/><stop stop-opacity="1" stop-color="rgb(99.487305%, 89.283752%, 90.133667%)" offset="0.425781"/><stop stop-opacity="1" stop-color="rgb(99.468994%, 88.897705%, 89.778137%)" offset="0.441406"/><stop stop-opacity="1" stop-color="rgb(99.450684%, 88.511658%, 89.422607%)" offset="0.457031"/><stop stop-opacity="1" stop-color="rgb(99.432373%, 88.12561%, 89.068604%)" offset="0.472656"/><stop stop-opacity="1" stop-color="rgb(99.414062%, 87.739563%, 88.713074%)" offset="0.488281"/><stop stop-opacity="1" stop-color="rgb(99.397278%, 87.402344%, 88.401794%)" offset="0.503906"/><stop stop-opacity="1" stop-color="rgb(99.383545%, 87.112427%, 88.134766%)" offset="0.515625"/><stop stop-opacity="1" stop-color="rgb(99.369812%, 86.824036%, 87.867737%)" offset="0.527344"/><stop stop-opacity="1" stop-color="rgb(99.356079%, 86.534119%, 87.602234%)" offset="0.539062"/><stop stop-opacity="1" stop-color="rgb(99.342346%, 86.244202%, 87.335205%)" offset="0.550781"/><stop stop-opacity="1" stop-color="rgb(99.328613%, 85.954285%, 87.068176%)" offset="0.5625"/><stop stop-opacity="1" stop-color="rgb(99.313354%, 85.665894%, 86.802673%)" offset="0.574219"/><stop stop-opacity="1" stop-color="rgb(99.299622%, 85.375977%, 86.535645%)" offset="0.585938"/><stop stop-opacity="1" stop-color="rgb(99.285889%, 85.08606%, 86.268616%)" offset="0.597656"/><stop stop-opacity="1" stop-color="rgb(99.272156%, 84.796143%, 86.001587%)" offset="0.609375"/><stop stop-opacity="1" stop-color="rgb(99.258423%, 84.507751%, 85.736084%)" offset="0.621094"/><stop stop-opacity="1" stop-color="rgb(99.247742%, 84.265137%, 85.513306%)" offset="0.632812"/><stop stop-opacity="1" stop-color="rgb(99.238586%, 84.072876%, 85.336304%)" offset="0.640625"/><stop stop-opacity="1" stop-color="rgb(99.229431%, 83.879089%, 85.157776%)" offset="0.648438"/><stop stop-opacity="1" stop-color="rgb(99.220276%, 83.686829%, 84.980774%)" offset="0.65625"/><stop stop-opacity="1" stop-color="rgb(99.211121%, 83.493042%, 84.802246%)" offset="0.664062"/><stop stop-opacity="1" stop-color="rgb(99.201965%, 83.300781%, 84.625244%)" offset="0.671875"/><stop stop-opacity="1" stop-color="rgb(99.19281%, 83.106995%, 84.446716%)" offset="0.679688"/><stop stop-opacity="1" stop-color="rgb(99.183655%, 82.914734%, 84.269714%)" offset="0.6875"/><stop stop-opacity="1" stop-color="rgb(99.169922%, 82.624817%, 84.002686%)" offset="0.695312"/><stop stop-opacity="1" stop-color="rgb(99.151611%, 82.23877%, 83.647156%)" offset="0.710938"/><stop stop-opacity="1" stop-color="rgb(99.133301%, 81.852722%, 83.291626%)" offset="0.726562"/><stop stop-opacity="1" stop-color="rgb(99.113464%, 81.466675%, 82.936096%)" offset="0.742188"/><stop stop-opacity="1" stop-color="rgb(99.09668%, 81.129456%, 82.624817%)" offset="0.757812"/><stop stop-opacity="1" stop-color="rgb(99.082947%, 80.839539%, 82.359314%)" offset="0.769531"/><stop stop-opacity="1" stop-color="rgb(99.069214%, 80.549622%, 82.092285%)" offset="0.78125"/><stop stop-opacity="1" stop-color="rgb(99.055481%, 80.259705%, 81.825256%)" offset="0.792969"/><stop stop-opacity="1" stop-color="rgb(99.041748%, 79.969788%, 81.558228%)" offset="0.804688"/><stop stop-opacity="1" stop-color="rgb(99.031067%, 79.728699%, 81.336975%)" offset="0.816406"/><stop stop-opacity="1" stop-color="rgb(99.021912%, 79.536438%, 81.158447%)" offset="0.824219"/><stop stop-opacity="1" stop-color="rgb(99.012756%, 79.342651%, 80.981445%)" offset="0.832031"/><stop stop-opacity="1" stop-color="rgb(99.003601%, 79.150391%, 80.802917%)" offset="0.839844"/><stop stop-opacity="1" stop-color="rgb(98.989868%, 78.860474%, 80.535889%)" offset="0.847656"/><stop stop-opacity="1" stop-color="rgb(98.971558%, 78.474426%, 80.181885%)" offset="0.863281"/><stop stop-opacity="1" stop-color="rgb(98.954773%, 78.137207%, 79.870605%)" offset="0.878906"/><stop stop-opacity="1" stop-color="rgb(98.94104%, 77.84729%, 79.603577%)" offset="0.890625"/><stop stop-opacity="1" stop-color="rgb(98.927307%, 77.557373%, 79.336548%)" offset="0.902344"/><stop stop-opacity="1" stop-color="rgb(98.916626%, 77.316284%, 79.115295%)" offset="0.914062"/><stop stop-opacity="1" stop-color="rgb(98.907471%, 77.122498%, 78.936768%)" offset="0.921875"/><stop stop-opacity="1" stop-color="rgb(98.892212%, 76.832581%, 78.669739%)" offset="0.929688"/><stop stop-opacity="1" stop-color="rgb(98.875427%, 76.495361%, 78.359985%)" offset="0.945312"/><stop stop-opacity="1" stop-color="rgb(98.864746%, 76.254272%, 78.137207%)" offset="0.957031"/><stop stop-opacity="1" stop-color="rgb(98.851013%, 75.964355%, 77.870178%)" offset="0.964844"/><stop stop-opacity="1" stop-color="rgb(98.83728%, 75.674438%, 77.604675%)" offset="0.980469"/><stop stop-opacity="1" stop-color="rgb(98.825073%, 75.43335%, 77.381897%)" offset="0.988281"/><stop stop-opacity="1" stop-color="rgb(98.81897%, 75.289917%, 77.249146%)" offset="1"/></radialGradient><clipPath id="b479ef8cbb"><path d="M 434.078125 294 L 590 294 L 590 352.160156 L 434.078125 352.160156 Z M 434.078125 294 " clip-rule="nonzero"/></clipPath><clipPath id="65bc18461a"><path d="M 484 208.980469 L 540 208.980469 L 540 209 L 484 209 Z M 484 208.980469 " clip-rule="nonzero"/></clipPath><clipPath id="fcdc311d20"><path d="M 546 312.410156 L 565 312.410156 L 565 332.648438 L 546 332.648438 Z M 546 312.410156 " clip-rule="nonzero"/></clipPath><clipPath id="c27003e8af"><path d="M 509 206 L 515 206 L 515 212.597656 L 509 212.597656 Z M 509 206 " clip-rule="nonzero"/></clipPath><clipPath id="e68bee56b5"><path d="M 511 265 L 513 265 L 513 284.402344 L 511 284.402344 Z M 511 265 " clip-rule="nonzero"/></clipPath><clipPath id="500696ea86"><path d="M 511 235.675781 L 513 235.675781 L 513 255 L 511 255 Z M 511 235.675781 " clip-rule="nonzero"/></clipPath><clipPath id="21afad43e0"><path d="M 492.148438 255 L 497 255 L 497 257 L 492.148438 257 Z M 492.148438 255 " clip-rule="nonzero"/></clipPath><clipPath id="dd169e3a35"><path d="M 527 263 L 531.878906 263 L 531.878906 265 L 527 265 Z M 527 263 " clip-rule="nonzero"/></clipPath><clipPath id="65c0196852"><path d="M 495.082031 141.808594 L 528.804688 141.808594 L 528.804688 175.445312 L 495.082031 175.445312 Z M 495.082031 141.808594 " clip-rule="nonzero"/></clipPath><clipPath id="ab08baa854"><path d="M 502.273438 340.203125 L 521.761719 340.203125 L 521.761719 364.191406 L 502.273438 364.191406 Z M 502.273438 340.203125 " clip-rule="nonzero"/></clipPath><clipPath id="b300649953"><path d="M 221 0.0898438 L 230 0.0898438 L 230 18 L 221 18 Z M 221 0.0898438 " clip-rule="nonzero"/></clipPath><clipPath id="097994e9c8"><rect x="0" width="254" y="0" height="50"/></clipPath><clipPath id="0d512f36e2"><path d="M 166 0.53125 L 175 0.53125 L 175 18 L 166 18 Z M 166 0.53125 " clip-rule="nonzero"/></clipPath><clipPath id="e3a40e7940"><rect x="0" width="264" y="0" height="24"/></clipPath></defs><g clip-path="url(#b616455337)"><path fill="#ffffff" d="M 0 0.140625 L 1024 0.140625 L 1024 575.859375 L 0 575.859375 Z M 0 0.140625 " fill-opacity="1" fill-rule="nonzero"/><path fill="url(#7dd8758277)" d="M 0 0.140625 L 0 575.859375 L 1024 575.859375 L 1024 0.140625 Z M 0 0.140625 " fill-rule="nonzero"/></g><path fill="#b20516" d="M 512.105469 305.914062 L 511.503906 305.722656 C 510.898438 305.53125 496.484375 300.933594 482.4375 290.535156 C 463.648438 276.617188 454.800781 258.96875 456.847656 239.476562 C 457.914062 229.324219 463.792969 220.527344 472.582031 215.9375 C 481.070312 211.503906 494.730469 209.671875 511.960938 225.597656 C 513.9375 223.703125 518.296875 219.894531 524.070312 216.945312 C 534.644531 211.550781 544.828125 211.730469 553.53125 217.472656 C 561.347656 222.632812 566.53125 230.964844 567.761719 240.339844 C 569.066406 250.292969 566.378906 260.578125 559.980469 270.066406 C 551.132812 283.191406 535.222656 295.171875 512.679688 305.652344 Z M 485.078125 216.046875 C 481.316406 216.046875 477.652344 216.96875 474.09375 218.824219 C 466.28125 222.902344 461.046875 230.75 460.089844 239.8125 C 458.144531 258.328125 466.289062 274.496094 484.308594 287.863281 C 496.355469 296.804688 509.035156 301.4375 511.890625 302.417969 C 533.574219 292.253906 548.84375 280.757812 557.28125 268.234375 C 563.3125 259.289062 565.746094 250.042969 564.523438 240.75 C 563.417969 232.316406 558.753906 224.816406 551.730469 220.183594 C 543.980469 215.070312 535.199219 214.9375 525.625 219.800781 C 518.296875 223.527344 513.234375 228.917969 513.191406 228.972656 L 512.058594 230.183594 L 510.859375 229.039062 C 501.867188 220.390625 493.234375 216.046875 485.078125 216.046875 Z M 485.078125 216.046875 " fill-opacity="1" fill-rule="nonzero"/><g clip-path="url(#b479ef8cbb)"><path fill="#b20516" d="M 586.6875 311.171875 C 584.703125 306.617188 581.742188 302.753906 578.113281 300.011719 C 567.457031 291.933594 552.363281 293.277344 534.476562 303.898438 C 523.664062 310.308594 515.023438 318.152344 511.992188 321.035156 C 508.960938 318.152344 500.308594 310.316406 489.507812 303.898438 C 471.621094 293.277344 456.527344 291.941406 445.867188 300.011719 C 442.242188 302.761719 439.277344 306.621094 437.292969 311.171875 C 434.261719 318.152344 430.652344 331.496094 440.578125 342.496094 C 446.226562 348.757812 454.425781 352.210938 462.894531 352.210938 C 465.726562 352.210938 468.589844 351.820312 471.390625 351.027344 C 480.835938 348.339844 495.453125 341.742188 512 325.578125 C 528.535156 341.734375 543.164062 348.339844 552.605469 351.027344 C 555.410156 351.820312 558.273438 352.210938 561.105469 352.210938 C 569.5625 352.210938 577.769531 348.757812 583.421875 342.496094 C 593.332031 331.496094 589.71875 318.152344 586.6875 311.171875 Z M 470.496094 347.894531 C 460.511719 350.734375 449.714844 347.765625 443.003906 340.316406 C 434.300781 330.664062 437.570312 318.730469 440.292969 312.472656 C 442.050781 308.425781 444.660156 305.011719 447.84375 302.605469 C 452.121094 299.371094 456.9375 298.042969 461.960938 298.042969 C 481.582031 298.042969 504.296875 318.257812 509.671875 323.3125 C 493.628906 338.957031 479.558594 345.316406 470.496094 347.894531 Z M 580.984375 340.320312 C 574.273438 347.765625 563.480469 350.742188 553.492188 347.902344 C 544.421875 345.324219 530.359375 338.964844 514.328125 323.320312 C 521.078125 316.96875 555.15625 286.703125 576.144531 302.613281 C 579.328125 305.027344 581.941406 308.441406 583.695312 312.480469 C 586.421875 318.730469 589.6875 330.671875 580.984375 340.320312 Z M 580.984375 340.320312 " fill-opacity="1" fill-rule="nonzero"/></g><g clip-path="url(#65bc18461a)"><path fill="#b20516" d="M 511.992188 208.921875 C 496.621094 208.921875 484.117188 196.417969 484.117188 181.046875 C 484.117188 165.679688 496.621094 153.167969 511.992188 153.167969 C 527.359375 153.167969 539.863281 165.671875 539.863281 181.042969 C 539.863281 196.410156 527.367188 208.921875 511.992188 208.921875 Z M 511.992188 156.082031 C 498.226562 156.082031 487.035156 167.285156 487.035156 181.042969 C 487.035156 194.796875 498.234375 206 511.992188 206 C 525.757812 206 536.949219 194.796875 536.949219 181.042969 C 536.949219 167.285156 525.757812 156.082031 511.992188 156.082031 Z M 511.992188 156.082031 " fill-opacity="1" fill-rule="nonzero"/></g><g clip-path="url(#fcdc311d20)"><path fill="#b20516" d="M 554.472656 323.996094 L 546.757812 322.6875 L 554.453125 321.214844 L 555.511719 312.410156 L 556.808594 321.214844 L 564.414062 322.5 L 556.863281 323.949219 L 555.789062 332.917969 Z M 554.472656 323.996094 " fill-opacity="1" fill-rule="nonzero"/></g><path fill="#b20516" d="M 555.542969 323.6875 L 550.90625 326.75 L 554.277344 322.582031 L 550.859375 318.558594 L 555.511719 321.484375 L 560.085938 318.464844 L 556.777344 322.554688 L 560.257812 326.648438 Z M 555.542969 323.6875 " fill-opacity="1" fill-rule="nonzero"/><path fill="#b20516" d="M 568.542969 322.664062 C 568.542969 322.871094 568.457031 323.046875 568.289062 323.195312 C 568.125 323.34375 567.921875 323.417969 567.683594 323.417969 C 567.449219 323.417969 567.246094 323.34375 567.082031 323.195312 C 566.914062 323.046875 566.828125 322.871094 566.828125 322.664062 C 566.828125 322.453125 566.914062 322.277344 567.082031 322.128906 C 567.246094 321.980469 567.449219 321.90625 567.683594 321.90625 C 567.921875 321.90625 568.125 321.980469 568.289062 322.128906 C 568.457031 322.277344 568.542969 322.453125 568.542969 322.664062 Z M 568.542969 322.664062 " fill-opacity="1" fill-rule="nonzero"/><path fill="#b20516" d="M 544.34375 322.664062 C 544.34375 322.871094 544.257812 323.046875 544.089844 323.195312 C 543.925781 323.34375 543.722656 323.417969 543.484375 323.417969 C 543.25 323.417969 543.046875 323.34375 542.882812 323.195312 C 542.714844 323.046875 542.628906 322.871094 542.628906 322.664062 C 542.628906 322.453125 542.714844 322.277344 542.882812 322.128906 C 543.046875 321.980469 543.25 321.90625 543.484375 321.90625 C 543.722656 321.90625 543.925781 321.980469 544.089844 322.128906 C 544.257812 322.277344 544.34375 322.453125 544.34375 322.664062 Z M 544.34375 322.664062 " fill-opacity="1" fill-rule="nonzero"/><g clip-path="url(#c27003e8af)"><path fill="#b20516" d="M 509.394531 209.867188 C 509.355469 209.507812 509.386719 209.152344 509.488281 208.800781 C 509.589844 208.453125 509.753906 208.136719 509.984375 207.851562 C 510.210938 207.570312 510.484375 207.339844 510.800781 207.164062 C 511.121094 206.988281 511.460938 206.882812 511.820312 206.84375 C 512.183594 206.804688 512.539062 206.835938 512.886719 206.9375 C 513.238281 207.039062 513.554688 207.203125 513.835938 207.429688 C 514.121094 207.65625 514.347656 207.929688 514.523438 208.25 C 514.699219 208.566406 514.808594 208.90625 514.847656 209.269531 C 514.886719 209.628906 514.855469 209.984375 514.753906 210.335938 C 514.652344 210.683594 514.488281 211 514.257812 211.285156 C 514.03125 211.566406 513.757812 211.796875 513.441406 211.972656 C 513.121094 212.144531 512.78125 212.253906 512.421875 212.292969 C 512.058594 212.332031 511.703125 212.300781 511.355469 212.199219 C 511.003906 212.097656 510.691406 211.933594 510.40625 211.707031 C 510.121094 211.480469 509.894531 211.207031 509.71875 210.886719 C 509.542969 210.570312 509.4375 210.230469 509.394531 209.867188 Z M 509.394531 209.867188 " fill-opacity="1" fill-rule="nonzero"/></g><path fill="#b20516" d="M 510.46875 195.128906 C 510.207031 195.019531 509.960938 194.886719 509.726562 194.730469 C 509.492188 194.574219 509.273438 194.398438 509.074219 194.199219 C 508.875 194 508.699219 193.78125 508.542969 193.546875 C 508.386719 193.3125 508.253906 193.066406 508.144531 192.804688 C 508.039062 192.546875 507.957031 192.277344 507.902344 192 C 507.847656 191.726562 507.820312 191.445312 507.820312 191.164062 C 507.820312 190.882812 507.847656 190.605469 507.902344 190.328125 C 507.957031 190.050781 508.039062 189.78125 508.144531 189.523438 C 508.253906 189.261719 508.386719 189.015625 508.542969 188.78125 C 508.699219 188.546875 508.875 188.332031 509.074219 188.132812 C 509.273438 187.933594 509.492188 187.753906 509.726562 187.597656 C 509.960938 187.441406 510.207031 187.308594 510.46875 187.199219 C 510.726562 187.09375 510.996094 187.011719 511.273438 186.957031 C 511.546875 186.902344 511.828125 186.875 512.109375 186.875 C 512.390625 186.875 512.671875 186.902344 512.945312 186.957031 C 513.222656 187.011719 513.492188 187.09375 513.75 187.199219 C 514.011719 187.308594 514.257812 187.441406 514.492188 187.597656 C 514.726562 187.753906 514.945312 187.933594 515.144531 188.132812 C 515.34375 188.332031 515.519531 188.546875 515.675781 188.78125 C 515.832031 189.015625 515.964844 189.261719 516.074219 189.523438 C 516.179688 189.78125 516.261719 190.050781 516.316406 190.328125 C 516.371094 190.605469 516.398438 190.882812 516.398438 191.164062 C 516.398438 191.445312 516.371094 191.726562 516.316406 192 C 516.261719 192.277344 516.179688 192.546875 516.074219 192.804688 C 515.964844 193.066406 515.832031 193.3125 515.675781 193.546875 C 515.519531 193.78125 515.34375 194 515.144531 194.199219 C 514.945312 194.398438 514.726562 194.574219 514.492188 194.730469 C 514.257812 194.886719 514.011719 195.019531 513.75 195.128906 C 513.492188 195.234375 513.222656 195.316406 512.945312 195.371094 C 512.671875 195.425781 512.390625 195.453125 512.109375 195.453125 C 511.828125 195.453125 511.546875 195.425781 511.273438 195.371094 C 510.996094 195.316406 510.726562 195.234375 510.46875 195.128906 Z M 510.46875 195.128906 " fill-opacity="1" fill-rule="nonzero"/><path fill="#b20516" d="M 525.433594 239.878906 C 524.707031 239.726562 524.613281 239.632812 524.460938 238.90625 C 524.246094 237.792969 524.34375 237.792969 524.125 238.90625 C 523.972656 239.632812 523.882812 239.726562 523.15625 239.878906 C 522.039062 240.09375 522.039062 239.996094 523.15625 240.214844 C 523.882812 240.367188 523.972656 240.460938 524.125 241.1875 C 524.34375 242.300781 524.246094 242.300781 524.464844 241.1875 C 524.617188 240.460938 524.707031 240.367188 525.433594 240.214844 C 526.546875 239.996094 526.550781 240.09375 525.433594 239.878906 Z M 525.433594 239.878906 " fill-opacity="1" fill-rule="nonzero"/><path fill="#b20516" d="M 501.089844 279.636719 C 500.652344 279.546875 500.597656 279.492188 500.503906 279.054688 C 500.375 278.386719 500.433594 278.386719 500.304688 279.054688 C 500.210938 279.492188 500.15625 279.546875 499.71875 279.636719 C 499.050781 279.769531 499.050781 279.710938 499.71875 279.839844 C 500.15625 279.933594 500.210938 279.988281 500.304688 280.421875 C 500.433594 281.09375 500.375 281.09375 500.503906 280.421875 C 500.597656 279.988281 500.652344 279.933594 501.089844 279.839844 C 501.757812 279.710938 501.757812 279.769531 501.089844 279.636719 Z M 501.089844 279.636719 " fill-opacity="1" fill-rule="nonzero"/><path fill="#b20516" d="M 523.027344 244.621094 C 521.921875 244.386719 521.78125 244.25 521.550781 243.144531 C 521.222656 241.453125 521.371094 241.453125 521.039062 243.144531 C 520.808594 244.25 520.667969 244.390625 519.566406 244.621094 C 517.875 244.949219 517.875 244.804688 519.566406 245.132812 C 520.667969 245.363281 520.808594 245.503906 521.042969 246.605469 C 521.371094 248.296875 521.222656 248.296875 521.550781 246.605469 C 521.785156 245.503906 521.921875 245.363281 523.027344 245.132812 C 524.71875 244.800781 524.71875 244.949219 523.027344 244.621094 Z M 523.027344 244.621094 " fill-opacity="1" fill-rule="nonzero"/><path fill="#b20516" d="M 522.226562 245.566406 C 521.820312 244.941406 521.820312 244.808594 522.226562 244.183594 C 522.867188 243.234375 522.933594 243.304688 521.988281 243.945312 C 521.363281 244.351562 521.230469 244.355469 520.605469 243.945312 C 519.65625 243.304688 519.726562 243.238281 520.363281 244.183594 C 520.773438 244.8125 520.773438 244.941406 520.363281 245.566406 C 519.726562 246.515625 519.65625 246.445312 520.605469 245.808594 C 521.230469 245.398438 521.363281 245.398438 521.988281 245.808594 C 522.9375 246.445312 522.867188 246.515625 522.226562 245.566406 Z M 522.226562 245.566406 " fill-opacity="1" fill-rule="nonzero"/><path fill="#b20516" d="M 504.546875 275.320312 C 503.675781 275.136719 503.5625 275.027344 503.378906 274.152344 C 503.117188 272.808594 503.234375 272.808594 502.972656 274.152344 C 502.789062 275.027344 502.679688 275.136719 501.804688 275.320312 C 500.464844 275.582031 500.464844 275.464844 501.804688 275.726562 C 502.679688 275.910156 502.789062 276.019531 502.972656 276.894531 C 503.234375 278.238281 503.117188 278.238281 503.378906 276.894531 C 503.5625 276.019531 503.675781 275.910156 504.546875 275.726562 C 505.890625 275.464844 505.890625 275.582031 504.546875 275.320312 Z M 504.546875 275.320312 " fill-opacity="1" fill-rule="nonzero"/><path fill="#b20516" d="M 503.914062 276.070312 C 503.589844 275.574219 503.589844 275.472656 503.914062 274.976562 C 504.421875 274.222656 504.476562 274.277344 503.726562 274.785156 C 503.230469 275.109375 503.125 275.109375 502.628906 274.785156 C 501.875 274.277344 501.929688 274.222656 502.4375 274.976562 C 502.761719 275.472656 502.761719 275.574219 502.4375 276.070312 C 501.933594 276.824219 501.875 276.769531 502.628906 276.261719 C 503.125 275.9375 503.230469 275.9375 503.726562 276.261719 C 504.476562 276.769531 504.421875 276.824219 503.914062 276.070312 Z M 503.914062 276.070312 " fill-opacity="1" fill-rule="nonzero"/><path fill="#b20516" d="M 517.097656 259.894531 C 517.097656 260.226562 517.066406 260.558594 517 260.886719 C 516.933594 261.214844 516.835938 261.535156 516.710938 261.84375 C 516.582031 262.15625 516.425781 262.449219 516.238281 262.726562 C 516.050781 263.007812 515.839844 263.265625 515.601562 263.5 C 515.367188 263.738281 515.109375 263.949219 514.832031 264.136719 C 514.550781 264.320312 514.257812 264.480469 513.949219 264.605469 C 513.636719 264.734375 513.320312 264.832031 512.992188 264.898438 C 512.664062 264.960938 512.332031 264.996094 511.996094 264.996094 C 511.660156 264.996094 511.328125 264.960938 511 264.898438 C 510.671875 264.832031 510.351562 264.734375 510.042969 264.605469 C 509.734375 264.480469 509.4375 264.320312 509.160156 264.136719 C 508.882812 263.949219 508.625 263.738281 508.386719 263.5 C 508.148438 263.265625 507.9375 263.007812 507.753906 262.726562 C 507.566406 262.449219 507.410156 262.15625 507.28125 261.84375 C 507.152344 261.535156 507.054688 261.214844 506.992188 260.886719 C 506.925781 260.558594 506.894531 260.226562 506.894531 259.894531 C 506.894531 259.558594 506.925781 259.226562 506.992188 258.898438 C 507.054688 258.570312 507.152344 258.25 507.28125 257.941406 C 507.410156 257.628906 507.566406 257.335938 507.753906 257.058594 C 507.9375 256.777344 508.148438 256.523438 508.386719 256.285156 C 508.625 256.046875 508.882812 255.835938 509.160156 255.648438 C 509.4375 255.464844 509.734375 255.308594 510.042969 255.179688 C 510.351562 255.050781 510.671875 254.953125 511 254.886719 C 511.328125 254.824219 511.660156 254.789062 511.996094 254.789062 C 512.332031 254.789062 512.664062 254.824219 512.992188 254.886719 C 513.320312 254.953125 513.636719 255.050781 513.949219 255.179688 C 514.257812 255.308594 514.550781 255.464844 514.832031 255.648438 C 515.109375 255.835938 515.367188 256.046875 515.601562 256.285156 C 515.839844 256.523438 516.050781 256.777344 516.238281 257.058594 C 516.425781 257.335938 516.582031 257.628906 516.710938 257.941406 C 516.835938 258.25 516.933594 258.570312 517 258.898438 C 517.066406 259.226562 517.097656 259.558594 517.097656 259.894531 Z M 517.097656 259.894531 " fill-opacity="1" fill-rule="nonzero"/><g clip-path="url(#e68bee56b5)"><path fill="#b20516" d="M 512.734375 266.515625 L 511.847656 284.105469 L 511.257812 266.492188 C 511.242188 265.4375 512.78125 265.460938 512.734375 266.515625 Z M 512.734375 266.515625 " fill-opacity="1" fill-rule="nonzero"/></g><path fill="#b20516" d="M 507.863281 265.027344 L 500.503906 271.132812 L 506.835938 263.964844 C 507.570312 263.210938 508.644531 264.3125 507.863281 265.027344 Z M 507.863281 265.027344 " fill-opacity="1" fill-rule="nonzero"/><path fill="#b20516" d="M 505.472656 260.53125 L 495.953125 259.644531 L 505.496094 259.054688 C 506.550781 259.039062 506.527344 260.578125 505.472656 260.53125 Z M 505.472656 260.53125 " fill-opacity="1" fill-rule="nonzero"/><path fill="#b20516" d="M 506.960938 255.660156 L 500.855469 248.300781 L 508.023438 254.632812 C 508.78125 255.367188 507.675781 256.441406 506.960938 255.660156 Z M 506.960938 255.660156 " fill-opacity="1" fill-rule="nonzero"/><g clip-path="url(#500696ea86)"><path fill="#b20516" d="M 511.460938 253.269531 L 512.34375 235.679688 L 512.9375 253.292969 C 512.953125 254.347656 511.410156 254.324219 511.460938 253.269531 Z M 511.460938 253.269531 " fill-opacity="1" fill-rule="nonzero"/></g><path fill="#b20516" d="M 516.328125 254.757812 L 523.6875 248.652344 L 517.355469 255.820312 C 516.621094 256.578125 515.550781 255.472656 516.328125 254.757812 Z M 516.328125 254.757812 " fill-opacity="1" fill-rule="nonzero"/><path fill="#b20516" d="M 518.71875 259.257812 L 528.238281 260.140625 L 518.695312 260.730469 C 517.640625 260.746094 517.664062 259.207031 518.71875 259.257812 Z M 518.71875 259.257812 " fill-opacity="1" fill-rule="nonzero"/><path fill="#b20516" d="M 517.230469 264.125 L 523.335938 271.484375 L 516.167969 265.152344 C 515.414062 264.417969 516.515625 263.34375 517.230469 264.125 Z M 517.230469 264.125 " fill-opacity="1" fill-rule="nonzero"/><path fill="#b20516" d="M 515.058594 265.800781 L 516.3125 271.121094 L 513.679688 266.332031 C 513.480469 265.96875 513.613281 265.515625 513.972656 265.320312 C 514.394531 265.078125 514.953125 265.328125 515.058594 265.800781 Z M 515.058594 265.800781 " fill-opacity="1" fill-rule="nonzero"/><path fill="#b20516" d="M 509.984375 266.234375 L 507.105469 270.886719 L 508.632812 265.636719 C 508.75 265.238281 509.164062 265.011719 509.558594 265.128906 C 510.023438 265.257812 510.242188 265.828125 509.984375 266.234375 Z M 509.984375 266.234375 " fill-opacity="1" fill-rule="nonzero"/><path fill="#b20516" d="M 506.085938 262.953125 L 500.765625 264.210938 L 505.558594 261.578125 C 505.917969 261.378906 506.371094 261.511719 506.570312 261.871094 C 506.808594 262.292969 506.558594 262.851562 506.085938 262.953125 Z M 506.085938 262.953125 " fill-opacity="1" fill-rule="nonzero"/><path fill="#b20516" d="M 505.652344 257.878906 L 501.003906 255.003906 L 506.253906 256.53125 C 506.648438 256.644531 506.875 257.058594 506.761719 257.453125 C 506.632812 257.921875 506.0625 258.140625 505.652344 257.878906 Z M 505.652344 257.878906 " fill-opacity="1" fill-rule="nonzero"/><path fill="#b20516" d="M 508.933594 253.984375 L 507.679688 248.664062 L 510.3125 253.457031 C 510.507812 253.816406 510.378906 254.269531 510.015625 254.46875 C 509.597656 254.707031 509.039062 254.457031 508.933594 253.984375 Z M 508.933594 253.984375 " fill-opacity="1" fill-rule="nonzero"/><path fill="#b20516" d="M 514.007812 253.550781 L 516.882812 248.898438 L 515.355469 254.148438 C 515.242188 254.546875 514.828125 254.773438 514.433594 254.65625 C 513.964844 254.53125 513.746094 253.957031 514.007812 253.550781 Z M 514.007812 253.550781 " fill-opacity="1" fill-rule="nonzero"/><path fill="#b20516" d="M 517.902344 256.832031 L 523.226562 255.574219 L 518.433594 258.210938 C 518.070312 258.40625 517.617188 258.277344 517.421875 257.914062 C 517.179688 257.492188 517.429688 256.9375 517.902344 256.832031 Z M 517.902344 256.832031 " fill-opacity="1" fill-rule="nonzero"/><path fill="#b20516" d="M 518.335938 261.90625 L 522.988281 264.78125 L 517.738281 263.253906 C 517.34375 263.140625 517.117188 262.726562 517.230469 262.332031 C 517.359375 261.863281 517.929688 261.644531 518.335938 261.90625 Z M 518.335938 261.90625 " fill-opacity="1" fill-rule="nonzero"/><path fill="#b20516" d="M 518.152344 269.273438 L 519.289062 271.28125 C 519.359375 271.40625 519.3125 271.558594 519.191406 271.628906 C 519.074219 271.695312 518.929688 271.660156 518.855469 271.550781 L 517.574219 269.628906 C 517.472656 269.472656 517.515625 269.261719 517.671875 269.15625 C 517.828125 269.054688 518.039062 269.097656 518.140625 269.253906 C 518.144531 269.257812 518.148438 269.265625 518.152344 269.273438 Z M 518.152344 269.273438 " fill-opacity="1" fill-rule="nonzero"/><path fill="#b20516" d="M 520.625 273.648438 L 522.675781 277.28125 L 520.359375 273.808594 C 520.3125 273.738281 520.332031 273.640625 520.402344 273.59375 C 520.472656 273.546875 520.570312 273.566406 520.617188 273.636719 C 520.621094 273.640625 520.621094 273.644531 520.625 273.648438 Z M 520.625 273.648438 " fill-opacity="1" fill-rule="nonzero"/><path fill="#b20516" d="M 509.71875 270.882812 L 509.097656 273.105469 C 509.058594 273.238281 508.921875 273.320312 508.785156 273.28125 C 508.65625 273.246094 508.578125 273.113281 508.605469 272.984375 L 509.058594 270.722656 C 509.09375 270.539062 509.273438 270.421875 509.457031 270.457031 C 509.640625 270.492188 509.761719 270.671875 509.722656 270.855469 C 509.722656 270.863281 509.71875 270.875 509.71875 270.882812 Z M 509.71875 270.882812 " fill-opacity="1" fill-rule="nonzero"/><path fill="#b20516" d="M 508.371094 275.71875 L 507.25 279.738281 L 508.070312 275.648438 C 508.085938 275.566406 508.167969 275.511719 508.25 275.527344 C 508.335938 275.542969 508.390625 275.625 508.371094 275.707031 C 508.371094 275.710938 508.371094 275.714844 508.371094 275.71875 Z M 508.371094 275.71875 " fill-opacity="1" fill-rule="nonzero"/><path fill="#b20516" d="M 502.613281 266.050781 L 500.605469 267.1875 C 500.484375 267.253906 500.328125 267.210938 500.257812 267.089844 C 500.191406 266.972656 500.230469 266.828125 500.339844 266.753906 L 502.257812 265.472656 C 502.414062 265.371094 502.625 265.410156 502.730469 265.566406 C 502.835938 265.722656 502.792969 265.933594 502.636719 266.039062 C 502.628906 266.042969 502.621094 266.046875 502.613281 266.050781 Z M 502.613281 266.050781 " fill-opacity="1" fill-rule="nonzero"/><path fill="#b20516" d="M 498.242188 268.519531 L 494.605469 270.570312 L 498.078125 268.257812 C 498.148438 268.210938 498.246094 268.230469 498.292969 268.300781 C 498.339844 268.371094 498.320312 268.46875 498.25 268.515625 C 498.246094 268.515625 498.242188 268.519531 498.242188 268.519531 Z M 498.242188 268.519531 " fill-opacity="1" fill-rule="nonzero"/><path fill="#b20516" d="M 501.007812 257.613281 L 498.785156 256.996094 C 498.648438 256.957031 498.570312 256.816406 498.605469 256.683594 C 498.644531 256.554688 498.773438 256.476562 498.902344 256.5 L 501.164062 256.953125 C 501.347656 256.992188 501.46875 257.171875 501.429688 257.355469 C 501.394531 257.539062 501.214844 257.65625 501.03125 257.621094 C 501.023438 257.617188 501.015625 257.617188 501.007812 257.613281 Z M 501.007812 257.613281 " fill-opacity="1" fill-rule="nonzero"/><g clip-path="url(#21afad43e0)"><path fill="#b20516" d="M 496.167969 256.265625 L 492.148438 255.148438 L 496.238281 255.96875 C 496.324219 255.984375 496.378906 256.066406 496.359375 256.148438 C 496.34375 256.234375 496.261719 256.285156 496.179688 256.269531 C 496.175781 256.269531 496.171875 256.269531 496.167969 256.265625 Z M 496.167969 256.265625 " fill-opacity="1" fill-rule="nonzero"/></g><path fill="#b20516" d="M 505.835938 250.511719 L 504.703125 248.503906 C 504.632812 248.378906 504.675781 248.226562 504.796875 248.15625 C 504.914062 248.089844 505.0625 248.128906 505.136719 248.238281 L 506.414062 250.15625 C 506.519531 250.3125 506.476562 250.523438 506.320312 250.628906 C 506.164062 250.730469 505.953125 250.691406 505.847656 250.535156 C 505.84375 250.527344 505.839844 250.519531 505.835938 250.511719 Z M 505.835938 250.511719 " fill-opacity="1" fill-rule="nonzero"/><path fill="#b20516" d="M 503.367188 246.136719 L 501.316406 242.503906 L 503.628906 245.976562 C 503.675781 246.046875 503.65625 246.144531 503.585938 246.191406 C 503.515625 246.238281 503.421875 246.21875 503.375 246.148438 C 503.371094 246.144531 503.371094 246.140625 503.367188 246.136719 Z M 503.367188 246.136719 " fill-opacity="1" fill-rule="nonzero"/><path fill="#b20516" d="M 514.273438 248.90625 L 514.890625 246.679688 C 514.929688 246.546875 515.070312 246.46875 515.207031 246.503906 C 515.335938 246.539062 515.410156 246.671875 515.386719 246.800781 L 514.933594 249.0625 C 514.894531 249.246094 514.71875 249.367188 514.535156 249.328125 C 514.351562 249.292969 514.230469 249.113281 514.265625 248.929688 C 514.269531 248.921875 514.269531 248.914062 514.273438 248.90625 Z M 514.273438 248.90625 " fill-opacity="1" fill-rule="nonzero"/><path fill="#b20516" d="M 515.621094 244.066406 L 516.738281 240.046875 L 515.917969 244.136719 C 515.902344 244.222656 515.820312 244.273438 515.738281 244.257812 C 515.65625 244.242188 515.601562 244.160156 515.617188 244.078125 C 515.617188 244.074219 515.621094 244.070312 515.621094 244.066406 Z M 515.621094 244.066406 " fill-opacity="1" fill-rule="nonzero"/><path fill="#b20516" d="M 521.375 253.734375 L 523.386719 252.597656 C 523.507812 252.53125 523.664062 252.574219 523.730469 252.695312 C 523.796875 252.8125 523.761719 252.960938 523.652344 253.03125 L 521.730469 254.3125 C 521.574219 254.414062 521.363281 254.375 521.261719 254.21875 C 521.15625 254.0625 521.199219 253.851562 521.355469 253.746094 C 521.359375 253.742188 521.367188 253.738281 521.375 253.734375 Z M 521.375 253.734375 " fill-opacity="1" fill-rule="nonzero"/><path fill="#b20516" d="M 525.75 251.265625 L 529.382812 249.214844 L 525.910156 251.527344 C 525.839844 251.574219 525.746094 251.554688 525.699219 251.484375 C 525.648438 251.414062 525.667969 251.316406 525.742188 251.269531 C 525.742188 251.269531 525.746094 251.265625 525.75 251.265625 Z M 525.75 251.265625 " fill-opacity="1" fill-rule="nonzero"/><path fill="#b20516" d="M 522.984375 262.171875 L 525.207031 262.789062 C 525.34375 262.828125 525.421875 262.96875 525.382812 263.101562 C 525.347656 263.230469 525.21875 263.308594 525.089844 263.285156 L 522.824219 262.832031 C 522.640625 262.792969 522.523438 262.613281 522.558594 262.429688 C 522.597656 262.246094 522.773438 262.128906 522.960938 262.164062 C 522.96875 262.167969 522.976562 262.167969 522.984375 262.171875 Z M 522.984375 262.171875 " fill-opacity="1" fill-rule="nonzero"/><g clip-path="url(#dd169e3a35)"><path fill="#b20516" d="M 527.820312 263.519531 L 531.84375 264.636719 L 527.75 263.816406 C 527.667969 263.800781 527.613281 263.71875 527.628906 263.636719 C 527.648438 263.550781 527.726562 263.5 527.8125 263.515625 C 527.816406 263.515625 527.820312 263.515625 527.820312 263.519531 Z M 527.820312 263.519531 " fill-opacity="1" fill-rule="nonzero"/></g><path fill="#b20516" d="M 499.023438 250.554688 C 499.023438 250.867188 498.773438 251.117188 498.460938 251.117188 C 498.148438 251.117188 497.898438 250.867188 497.898438 250.554688 C 497.898438 250.246094 498.148438 249.992188 498.460938 249.992188 C 498.773438 249.992188 499.023438 250.246094 499.023438 250.554688 Z M 499.023438 250.554688 " fill-opacity="1" fill-rule="nonzero"/><path fill="#b20516" d="M 516.589844 273.167969 C 516.542969 273.515625 516.226562 273.757812 515.878906 273.710938 C 515.535156 273.667969 515.292969 273.347656 515.335938 273.003906 C 515.382812 272.65625 515.699219 272.414062 516.046875 272.457031 C 516.394531 272.503906 516.636719 272.820312 516.589844 273.167969 Z M 516.589844 273.167969 " fill-opacity="1" fill-rule="nonzero"/><path fill="#b20516" d="M 496.496094 248.714844 C 496.496094 248.941406 496.316406 249.125 496.089844 249.125 C 495.863281 249.125 495.683594 248.941406 495.683594 248.714844 C 495.683594 248.492188 495.863281 248.308594 496.089844 248.308594 C 496.316406 248.308594 496.496094 248.492188 496.496094 248.714844 Z M 496.496094 248.714844 " fill-opacity="1" fill-rule="nonzero"/><path fill="#b20516" d="M 517.320312 275.71875 C 517.292969 275.941406 517.085938 276.097656 516.863281 276.070312 C 516.640625 276.039062 516.484375 275.832031 516.511719 275.609375 C 516.542969 275.386719 516.746094 275.230469 516.96875 275.257812 C 517.195312 275.289062 517.351562 275.496094 517.320312 275.71875 Z M 517.320312 275.71875 " fill-opacity="1" fill-rule="nonzero"/><g clip-path="url(#65c0196852)"><path fill="#b20516" d="M 528.871094 157.296875 C 528.886719 157.472656 528.894531 157.667969 528.902344 157.890625 C 528.914062 158.140625 528.917969 158.355469 528.917969 158.527344 C 528.917969 163.199219 527.023438 167.429688 523.960938 170.488281 C 520.902344 173.550781 516.671875 175.445312 512 175.445312 C 507.328125 175.445312 503.097656 173.550781 500.035156 170.488281 C 496.976562 167.429688 495.082031 163.199219 495.082031 158.527344 C 495.082031 154.339844 496.605469 150.507812 499.128906 147.550781 C 501.683594 144.554688 505.273438 142.460938 509.34375 141.820312 L 509.34375 141.816406 C 509.730469 141.757812 510.089844 142.019531 510.152344 142.402344 C 510.207031 142.769531 509.972656 143.113281 509.621094 143.199219 C 506.867188 144.097656 504.5 145.851562 502.828125 148.148438 C 501.191406 150.398438 500.226562 153.167969 500.226562 156.164062 C 500.226562 159.933594 501.753906 163.34375 504.222656 165.808594 C 506.691406 168.277344 510.101562 169.804688 513.867188 169.804688 C 517.4375 169.804688 520.6875 168.433594 523.121094 166.191406 C 525.570312 163.929688 527.1875 160.78125 527.464844 157.253906 L 528.167969 157.308594 L 527.464844 157.253906 C 527.496094 156.867188 527.835938 156.574219 528.222656 156.605469 C 528.589844 156.636719 528.867188 156.9375 528.871094 157.296875 Z M 522.964844 169.492188 C 524.300781 168.15625 525.394531 166.578125 526.175781 164.828125 C 525.558594 165.699219 524.855469 166.503906 524.070312 167.226562 C 521.390625 169.703125 517.804688 171.214844 513.867188 171.214844 C 509.710938 171.214844 505.949219 169.53125 503.226562 166.808594 C 500.503906 164.082031 498.816406 160.320312 498.816406 156.164062 C 498.816406 152.863281 499.882812 149.804688 501.6875 147.324219 C 501.976562 146.929688 502.28125 146.550781 502.605469 146.183594 C 501.722656 146.859375 500.914062 147.621094 500.195312 148.464844 C 497.886719 151.171875 496.492188 154.683594 496.492188 158.527344 C 496.492188 162.808594 498.226562 166.6875 501.035156 169.492188 C 503.839844 172.300781 507.71875 174.035156 512 174.035156 C 516.28125 174.035156 520.160156 172.300781 522.964844 169.492188 " fill-opacity="1" fill-rule="nonzero"/></g><g clip-path="url(#ab08baa854)"><path fill="#b20516" d="M 507.269531 357.605469 C 508.917969 359.628906 510.3125 361.816406 511.449219 364.167969 C 511.558594 364.398438 511.742188 364.511719 511.996094 364.511719 C 512.25 364.511719 512.429688 364.398438 512.542969 364.167969 C 514.683594 359.726562 517.667969 355.945312 521.492188 352.832031 C 521.5625 352.773438 521.617188 352.703125 521.65625 352.621094 C 521.695312 352.539062 521.714844 352.449219 521.714844 352.359375 C 521.714844 352.269531 521.695312 352.179688 521.65625 352.097656 C 521.617188 352.015625 521.5625 351.945312 521.492188 351.886719 C 519.738281 350.457031 518.148438 348.867188 516.71875 347.113281 C 515.070312 345.089844 513.675781 342.902344 512.542969 340.550781 C 512.429688 340.324219 512.25 340.210938 511.996094 340.210938 C 511.742188 340.210938 511.558594 340.324219 511.449219 340.550781 C 510.3125 342.902344 508.917969 345.089844 507.269531 347.113281 C 505.839844 348.867188 504.25 350.457031 502.496094 351.886719 C 502.425781 351.945312 502.371094 352.015625 502.332031 352.097656 C 502.292969 352.179688 502.273438 352.269531 502.273438 352.359375 C 502.273438 352.449219 502.292969 352.539062 502.332031 352.621094 C 502.371094 352.703125 502.425781 352.773438 502.496094 352.832031 C 504.25 354.261719 505.839844 355.851562 507.269531 357.605469 Z M 508.210938 347.882812 C 509.664062 346.101562 510.921875 344.195312 511.996094 342.164062 C 513.066406 344.195312 514.328125 346.101562 515.777344 347.882812 C 517.101562 349.507812 518.5625 351 520.160156 352.359375 C 516.78125 355.234375 514.0625 358.632812 511.996094 362.558594 C 510.921875 360.527344 509.664062 358.621094 508.210938 356.839844 C 506.886719 355.214844 505.425781 353.722656 503.828125 352.359375 C 505.425781 351 506.886719 349.507812 508.210938 347.882812 Z M 508.210938 347.882812 " fill-opacity="1" fill-rule="nonzero"/></g><path fill="#b20516" d="M 510.472656 382.59375 C 510.214844 382.484375 509.964844 382.351562 509.730469 382.195312 C 509.496094 382.039062 509.28125 381.863281 509.082031 381.664062 C 508.882812 381.464844 508.703125 381.246094 508.546875 381.011719 C 508.390625 380.777344 508.257812 380.53125 508.152344 380.269531 C 508.042969 380.011719 507.960938 379.742188 507.90625 379.464844 C 507.851562 379.191406 507.824219 378.910156 507.824219 378.628906 C 507.824219 378.347656 507.851562 378.070312 507.90625 377.792969 C 507.960938 377.515625 508.042969 377.25 508.152344 376.988281 C 508.257812 376.726562 508.390625 376.480469 508.546875 376.246094 C 508.703125 376.011719 508.882812 375.796875 509.082031 375.597656 C 509.28125 375.398438 509.496094 375.21875 509.730469 375.0625 C 509.964844 374.90625 510.214844 374.773438 510.472656 374.667969 C 510.734375 374.558594 511 374.476562 511.277344 374.421875 C 511.554688 374.367188 511.832031 374.339844 512.113281 374.339844 C 512.398438 374.339844 512.675781 374.367188 512.953125 374.421875 C 513.226562 374.476562 513.496094 374.558594 513.757812 374.667969 C 514.015625 374.773438 514.265625 374.90625 514.5 375.0625 C 514.734375 375.21875 514.949219 375.398438 515.148438 375.597656 C 515.347656 375.796875 515.527344 376.011719 515.683594 376.246094 C 515.839844 376.480469 515.96875 376.726562 516.078125 376.988281 C 516.1875 377.25 516.269531 377.515625 516.324219 377.792969 C 516.378906 378.070312 516.40625 378.347656 516.40625 378.628906 C 516.40625 378.910156 516.378906 379.191406 516.324219 379.464844 C 516.265625 379.742188 516.1875 380.011719 516.078125 380.273438 C 515.96875 380.53125 515.839844 380.777344 515.683594 381.011719 C 515.527344 381.246094 515.347656 381.464844 515.148438 381.664062 C 514.949219 381.863281 514.734375 382.039062 514.5 382.195312 C 514.265625 382.351562 514.015625 382.484375 513.757812 382.59375 C 513.496094 382.699219 513.226562 382.78125 512.953125 382.835938 C 512.675781 382.890625 512.398438 382.917969 512.113281 382.917969 C 511.832031 382.917969 511.554688 382.890625 511.277344 382.835938 C 511 382.78125 510.734375 382.699219 510.472656 382.59375 Z M 510.472656 382.59375 " fill-opacity="1" fill-rule="nonzero"/><g transform="matrix(1, 0, 0, 1, 388, 428)"><g clip-path="url(#097994e9c8)"><g fill="#b20516" fill-opacity="1"><g transform="translate(0.746869, 17.5436)"><g><path d="M 3.34375 -1.453125 L 9.703125 -1.453125 L 9.703125 0 L 1.5625 0 L 1.5625 -13.4375 L 3.34375 -13.4375 Z M 3.34375 -1.453125 "/></g></g></g><g fill="#b20516" fill-opacity="1"><g transform="translate(16.572621, 17.5436)"><g><path d="M 9.15625 -6.203125 L 3.328125 -6.203125 L 3.328125 -1.453125 L 10.09375 -1.453125 L 10.09375 0 L 1.5625 0 L 1.5625 -13.4375 L 10 -13.4375 L 10 -11.96875 L 3.328125 -11.96875 L 3.328125 -7.65625 L 9.15625 -7.65625 Z M 9.15625 -6.203125 "/></g></g></g><g fill="#b20516" fill-opacity="1"><g transform="translate(32.969958, 17.5436)"><g><path d="M 5.515625 -5.984375 C 3.992188 -6.421875 2.882812 -6.957031 2.1875 -7.59375 C 1.5 -8.226562 1.15625 -9.015625 1.15625 -9.953125 C 1.15625 -11.015625 1.578125 -11.890625 2.421875 -12.578125 C 3.273438 -13.265625 4.378906 -13.609375 5.734375 -13.609375 C 6.648438 -13.609375 7.46875 -13.429688 8.1875 -13.078125 C 8.914062 -12.722656 9.476562 -12.226562 9.875 -11.59375 C 10.269531 -10.96875 10.46875 -10.285156 10.46875 -9.546875 L 8.6875 -9.546875 C 8.6875 -10.359375 8.425781 -10.992188 7.90625 -11.453125 C 7.394531 -11.921875 6.671875 -12.15625 5.734375 -12.15625 C 4.859375 -12.15625 4.175781 -11.960938 3.6875 -11.578125 C 3.195312 -11.191406 2.953125 -10.660156 2.953125 -9.984375 C 2.953125 -9.429688 3.179688 -8.96875 3.640625 -8.59375 C 4.109375 -8.21875 4.898438 -7.867188 6.015625 -7.546875 C 7.128906 -7.234375 8 -6.890625 8.625 -6.515625 C 9.257812 -6.140625 9.726562 -5.695312 10.03125 -5.1875 C 10.34375 -4.6875 10.5 -4.09375 10.5 -3.40625 C 10.5 -2.320312 10.070312 -1.453125 9.21875 -0.796875 C 8.375 -0.140625 7.238281 0.1875 5.8125 0.1875 C 4.894531 0.1875 4.035156 0.0078125 3.234375 -0.34375 C 2.429688 -0.695312 1.8125 -1.179688 1.375 -1.796875 C 0.945312 -2.410156 0.734375 -3.109375 0.734375 -3.890625 L 2.515625 -3.890625 C 2.515625 -3.078125 2.8125 -2.4375 3.40625 -1.96875 C 4.007812 -1.5 4.8125 -1.265625 5.8125 -1.265625 C 6.75 -1.265625 7.46875 -1.453125 7.96875 -1.828125 C 8.46875 -2.210938 8.71875 -2.734375 8.71875 -3.390625 C 8.71875 -4.046875 8.484375 -4.550781 8.015625 -4.90625 C 7.554688 -5.269531 6.722656 -5.628906 5.515625 -5.984375 Z M 5.515625 -5.984375 "/></g></g></g><g fill="#b20516" fill-opacity="1"><g transform="translate(49.837468, 17.5436)"><g/></g></g><g fill="#b20516" fill-opacity="1"><g transform="translate(60.177851, 17.5436)"><g><path d="M 3.34375 -1.453125 L 9.703125 -1.453125 L 9.703125 0 L 1.5625 0 L 1.5625 -13.4375 L 3.34375 -13.4375 Z M 3.34375 -1.453125 "/></g></g></g><g fill="#b20516" fill-opacity="1"><g transform="translate(76.003603, 17.5436)"><g><path d="M 3.453125 0 L 1.6875 0 L 1.6875 -13.4375 L 3.453125 -13.4375 Z M 3.453125 0 "/></g></g></g><g fill="#b20516" fill-opacity="1"><g transform="translate(86.804942, 17.5436)"><g><path d="M 9.15625 -6.203125 L 3.328125 -6.203125 L 3.328125 -1.453125 L 10.09375 -1.453125 L 10.09375 0 L 1.5625 0 L 1.5625 -13.4375 L 10 -13.4375 L 10 -11.96875 L 3.328125 -11.96875 L 3.328125 -7.65625 L 9.15625 -7.65625 Z M 9.15625 -6.203125 "/></g></g></g><g fill="#b20516" fill-opacity="1"><g transform="translate(103.202279, 17.5436)"><g><path d="M 11.875 0 L 10.09375 0 L 3.34375 -10.34375 L 3.34375 0 L 1.5625 0 L 1.5625 -13.4375 L 3.34375 -13.4375 L 10.125 -3.03125 L 10.125 -13.4375 L 11.875 -13.4375 Z M 11.875 0 "/></g></g></g><g fill="#b20516" fill-opacity="1"><g transform="translate(122.32847, 17.5436)"><g><path d="M 5.515625 -5.984375 C 3.992188 -6.421875 2.882812 -6.957031 2.1875 -7.59375 C 1.5 -8.226562 1.15625 -9.015625 1.15625 -9.953125 C 1.15625 -11.015625 1.578125 -11.890625 2.421875 -12.578125 C 3.273438 -13.265625 4.378906 -13.609375 5.734375 -13.609375 C 6.648438 -13.609375 7.46875 -13.429688 8.1875 -13.078125 C 8.914062 -12.722656 9.476562 -12.226562 9.875 -11.59375 C 10.269531 -10.96875 10.46875 -10.285156 10.46875 -9.546875 L 8.6875 -9.546875 C 8.6875 -10.359375 8.425781 -10.992188 7.90625 -11.453125 C 7.394531 -11.921875 6.671875 -12.15625 5.734375 -12.15625 C 4.859375 -12.15625 4.175781 -11.960938 3.6875 -11.578125 C 3.195312 -11.191406 2.953125 -10.660156 2.953125 -9.984375 C 2.953125 -9.429688 3.179688 -8.96875 3.640625 -8.59375 C 4.109375 -8.21875 4.898438 -7.867188 6.015625 -7.546875 C 7.128906 -7.234375 8 -6.890625 8.625 -6.515625 C 9.257812 -6.140625 9.726562 -5.695312 10.03125 -5.1875 C 10.34375 -4.6875 10.5 -4.09375 10.5 -3.40625 C 10.5 -2.320312 10.070312 -1.453125 9.21875 -0.796875 C 8.375 -0.140625 7.238281 0.1875 5.8125 0.1875 C 4.894531 0.1875 4.035156 0.0078125 3.234375 -0.34375 C 2.429688 -0.695312 1.8125 -1.179688 1.375 -1.796875 C 0.945312 -2.410156 0.734375 -3.109375 0.734375 -3.890625 L 2.515625 -3.890625 C 2.515625 -3.078125 2.8125 -2.4375 3.40625 -1.96875 C 4.007812 -1.5 4.8125 -1.265625 5.8125 -1.265625 C 6.75 -1.265625 7.46875 -1.453125 7.96875 -1.828125 C 8.46875 -2.210938 8.71875 -2.734375 8.71875 -3.390625 C 8.71875 -4.046875 8.484375 -4.550781 8.015625 -4.90625 C 7.554688 -5.269531 6.722656 -5.628906 5.515625 -5.984375 Z M 5.515625 -5.984375 "/></g></g></g><g fill="#b20516" fill-opacity="1"><g transform="translate(139.195981, 17.5436)"><g/></g></g><g fill="#b20516" fill-opacity="1"><g transform="translate(149.536364, 17.5436)"><g><path d="M 5.515625 -5.984375 C 3.992188 -6.421875 2.882812 -6.957031 2.1875 -7.59375 C 1.5 -8.226562 1.15625 -9.015625 1.15625 -9.953125 C 1.15625 -11.015625 1.578125 -11.890625 2.421875 -12.578125 C 3.273438 -13.265625 4.378906 -13.609375 5.734375 -13.609375 C 6.648438 -13.609375 7.46875 -13.429688 8.1875 -13.078125 C 8.914062 -12.722656 9.476562 -12.226562 9.875 -11.59375 C 10.269531 -10.96875 10.46875 -10.285156 10.46875 -9.546875 L 8.6875 -9.546875 C 8.6875 -10.359375 8.425781 -10.992188 7.90625 -11.453125 C 7.394531 -11.921875 6.671875 -12.15625 5.734375 -12.15625 C 4.859375 -12.15625 4.175781 -11.960938 3.6875 -11.578125 C 3.195312 -11.191406 2.953125 -10.660156 2.953125 -9.984375 C 2.953125 -9.429688 3.179688 -8.96875 3.640625 -8.59375 C 4.109375 -8.21875 4.898438 -7.867188 6.015625 -7.546875 C 7.128906 -7.234375 8 -6.890625 8.625 -6.515625 C 9.257812 -6.140625 9.726562 -5.695312 10.03125 -5.1875 C 10.34375 -4.6875 10.5 -4.09375 10.5 -3.40625 C 10.5 -2.320312 10.070312 -1.453125 9.21875 -0.796875 C 8.375 -0.140625 7.238281 0.1875 5.8125 0.1875 C 4.894531 0.1875 4.035156 0.0078125 3.234375 -0.34375 C 2.429688 -0.695312 1.8125 -1.179688 1.375 -1.796875 C 0.945312 -2.410156 0.734375 -3.109375 0.734375 -3.890625 L 2.515625 -3.890625 C 2.515625 -3.078125 2.8125 -2.4375 3.40625 -1.96875 C 4.007812 -1.5 4.8125 -1.265625 5.8125 -1.265625 C 6.75 -1.265625 7.46875 -1.453125 7.96875 -1.828125 C 8.46875 -2.210938 8.71875 -2.734375 8.71875 -3.390625 C 8.71875 -4.046875 8.484375 -4.550781 8.015625 -4.90625 C 7.554688 -5.269531 6.722656 -5.628906 5.515625 -5.984375 Z M 5.515625 -5.984375 "/></g></g></g><g fill="#b20516" fill-opacity="1"><g transform="translate(166.403874, 17.5436)"><g><path d="M 8.96875 -3.5 L 3.34375 -3.5 L 2.078125 0 L 0.265625 0 L 5.390625 -13.4375 L 6.9375 -13.4375 L 12.078125 0 L 10.25 0 Z M 3.890625 -4.96875 L 8.453125 -4.96875 L 6.15625 -11.25 Z M 3.890625 -4.96875 "/></g></g></g><g fill="#b20516" fill-opacity="1"><g transform="translate(184.386897, 17.5436)"><g><path d="M 11.4375 -4.265625 C 11.269531 -2.835938 10.742188 -1.738281 9.859375 -0.96875 C 8.984375 -0.195312 7.8125 0.1875 6.34375 0.1875 C 4.757812 0.1875 3.488281 -0.378906 2.53125 -1.515625 C 1.570312 -2.660156 1.09375 -4.1875 1.09375 -6.09375 L 1.09375 -7.375 C 1.09375 -8.625 1.316406 -9.722656 1.765625 -10.671875 C 2.210938 -11.617188 2.84375 -12.34375 3.65625 -12.84375 C 4.476562 -13.351562 5.425781 -13.609375 6.5 -13.609375 C 7.925781 -13.609375 9.066406 -13.207031 9.921875 -12.40625 C 10.785156 -11.613281 11.289062 -10.515625 11.4375 -9.109375 L 9.65625 -9.109375 C 9.5 -10.179688 9.164062 -10.957031 8.65625 -11.4375 C 8.144531 -11.914062 7.425781 -12.15625 6.5 -12.15625 C 5.375 -12.15625 4.488281 -11.734375 3.84375 -10.890625 C 3.195312 -10.054688 2.875 -8.867188 2.875 -7.328125 L 2.875 -6.03125 C 2.875 -4.570312 3.175781 -3.410156 3.78125 -2.546875 C 4.394531 -1.691406 5.25 -1.265625 6.34375 -1.265625 C 7.332031 -1.265625 8.085938 -1.484375 8.609375 -1.921875 C 9.140625 -2.367188 9.488281 -3.148438 9.65625 -4.265625 Z M 11.4375 -4.265625 "/></g></g></g><g fill="#b20516" fill-opacity="1"><g transform="translate(202.342252, 17.5436)"><g><path d="M 6.484375 -5.4375 L 3.328125 -5.4375 L 3.328125 0 L 1.546875 0 L 1.546875 -13.4375 L 6 -13.4375 C 7.507812 -13.4375 8.671875 -13.085938 9.484375 -12.390625 C 10.296875 -11.703125 10.703125 -10.703125 10.703125 -9.390625 C 10.703125 -8.554688 10.476562 -7.828125 10.03125 -7.203125 C 9.582031 -6.578125 8.953125 -6.113281 8.140625 -5.8125 L 11.296875 -0.109375 L 11.296875 0 L 9.40625 0 Z M 3.328125 -6.875 L 6.046875 -6.875 C 6.929688 -6.875 7.628906 -7.101562 8.140625 -7.5625 C 8.660156 -8.019531 8.921875 -8.628906 8.921875 -9.390625 C 8.921875 -10.222656 8.671875 -10.859375 8.171875 -11.296875 C 7.679688 -11.742188 6.972656 -11.96875 6.046875 -11.96875 L 3.328125 -11.96875 Z M 3.328125 -6.875 "/></g></g></g><g clip-path="url(#b300649953)"><g fill="#b20516" fill-opacity="1"><g transform="translate(219.633851, 17.5436)"><g><path d="M 9.15625 -6.203125 L 3.328125 -6.203125 L 3.328125 -1.453125 L 10.09375 -1.453125 L 10.09375 0 L 1.5625 0 L 1.5625 -13.4375 L 10 -13.4375 L 10 -11.96875 L 3.328125 -11.96875 L 3.328125 -7.65625 L 9.15625 -7.65625 Z M 6.5625 -17.140625 L 8.625 -17.140625 L 6.15625 -14.421875 L 4.78125 -14.421875 Z M 6.5625 -17.140625 "/></g></g></g></g><g fill="#b20516" fill-opacity="1"><g transform="translate(236.031188, 17.5436)"><g><path d="M 5.515625 -5.984375 C 3.992188 -6.421875 2.882812 -6.957031 2.1875 -7.59375 C 1.5 -8.226562 1.15625 -9.015625 1.15625 -9.953125 C 1.15625 -11.015625 1.578125 -11.890625 2.421875 -12.578125 C 3.273438 -13.265625 4.378906 -13.609375 5.734375 -13.609375 C 6.648438 -13.609375 7.46875 -13.429688 8.1875 -13.078125 C 8.914062 -12.722656 9.476562 -12.226562 9.875 -11.59375 C 10.269531 -10.96875 10.46875 -10.285156 10.46875 -9.546875 L 8.6875 -9.546875 C 8.6875 -10.359375 8.425781 -10.992188 7.90625 -11.453125 C 7.394531 -11.921875 6.671875 -12.15625 5.734375 -12.15625 C 4.859375 -12.15625 4.175781 -11.960938 3.6875 -11.578125 C 3.195312 -11.191406 2.953125 -10.660156 2.953125 -9.984375 C 2.953125 -9.429688 3.179688 -8.96875 3.640625 -8.59375 C 4.109375 -8.21875 4.898438 -7.867188 6.015625 -7.546875 C 7.128906 -7.234375 8 -6.890625 8.625 -6.515625 C 9.257812 -6.140625 9.726562 -5.695312 10.03125 -5.1875 C 10.34375 -4.6875 10.5 -4.09375 10.5 -3.40625 C 10.5 -2.320312 10.070312 -1.453125 9.21875 -0.796875 C 8.375 -0.140625 7.238281 0.1875 5.8125 0.1875 C 4.894531 0.1875 4.035156 0.0078125 3.234375 -0.34375 C 2.429688 -0.695312 1.8125 -1.179688 1.375 -1.796875 C 0.945312 -2.410156 0.734375 -3.109375 0.734375 -3.890625 L 2.515625 -3.890625 C 2.515625 -3.078125 2.8125 -2.4375 3.40625 -1.96875 C 4.007812 -1.5 4.8125 -1.265625 5.8125 -1.265625 C 6.75 -1.265625 7.46875 -1.453125 7.96875 -1.828125 C 8.46875 -2.210938 8.71875 -2.734375 8.71875 -3.390625 C 8.71875 -4.046875 8.484375 -4.550781 8.015625 -4.90625 C 7.554688 -5.269531 6.722656 -5.628906 5.515625 -5.984375 Z M 5.515625 -5.984375 "/></g></g></g><g fill="#b20516" fill-opacity="1"><g transform="translate(59.575353, 43.980651)"><g><path d="M 1.5625 0 L 1.5625 -13.4375 L 5.34375 -13.4375 C 6.519531 -13.4375 7.554688 -13.175781 8.453125 -12.65625 C 9.347656 -12.132812 10.039062 -11.394531 10.53125 -10.4375 C 11.019531 -9.488281 11.265625 -8.398438 11.265625 -7.171875 L 11.265625 -6.3125 C 11.265625 -5.039062 11.019531 -3.925781 10.53125 -2.96875 C 10.050781 -2.019531 9.351562 -1.289062 8.4375 -0.78125 C 7.53125 -0.269531 6.476562 -0.0078125 5.28125 0 Z M 3.328125 -11.96875 L 3.328125 -1.453125 L 5.1875 -1.453125 C 6.550781 -1.453125 7.613281 -1.875 8.375 -2.71875 C 9.132812 -3.570312 9.515625 -4.78125 9.515625 -6.34375 L 9.515625 -7.125 C 9.515625 -8.65625 9.15625 -9.84375 8.4375 -10.6875 C 7.726562 -11.53125 6.710938 -11.957031 5.390625 -11.96875 Z M 3.328125 -11.96875 "/></g></g></g><g fill="#b20516" fill-opacity="1"><g transform="translate(77.622908, 43.980651)"><g><path d="M 11.015625 -13.4375 L 11.015625 -4.296875 C 11.003906 -3.023438 10.601562 -1.988281 9.8125 -1.1875 C 9.03125 -0.382812 7.960938 0.0664062 6.609375 0.171875 L 6.140625 0.1875 C 4.660156 0.1875 3.484375 -0.207031 2.609375 -1 C 1.742188 -1.789062 1.304688 -2.882812 1.296875 -4.28125 L 1.296875 -13.4375 L 3.046875 -13.4375 L 3.046875 -4.328125 C 3.046875 -3.359375 3.3125 -2.601562 3.84375 -2.0625 C 4.382812 -1.53125 5.148438 -1.265625 6.140625 -1.265625 C 7.140625 -1.265625 7.90625 -1.53125 8.4375 -2.0625 C 8.96875 -2.601562 9.234375 -3.359375 9.234375 -4.328125 L 9.234375 -13.4375 Z M 11.015625 -13.4375 "/></g></g></g><g fill="#b20516" fill-opacity="1"><g transform="translate(95.532178, 43.980651)"><g/></g></g><g fill="#b20516" fill-opacity="1"><g transform="translate(105.872561, 43.980651)"><g><path d="M 11.4375 -4.265625 C 11.269531 -2.835938 10.742188 -1.738281 9.859375 -0.96875 C 8.984375 -0.195312 7.8125 0.1875 6.34375 0.1875 C 4.757812 0.1875 3.488281 -0.378906 2.53125 -1.515625 C 1.570312 -2.660156 1.09375 -4.1875 1.09375 -6.09375 L 1.09375 -7.375 C 1.09375 -8.625 1.316406 -9.722656 1.765625 -10.671875 C 2.210938 -11.617188 2.84375 -12.34375 3.65625 -12.84375 C 4.476562 -13.351562 5.425781 -13.609375 6.5 -13.609375 C 7.925781 -13.609375 9.066406 -13.207031 9.921875 -12.40625 C 10.785156 -11.613281 11.289062 -10.515625 11.4375 -9.109375 L 9.65625 -9.109375 C 9.5 -10.179688 9.164062 -10.957031 8.65625 -11.4375 C 8.144531 -11.914062 7.425781 -12.15625 6.5 -12.15625 C 5.375 -12.15625 4.488281 -11.734375 3.84375 -10.890625 C 3.195312 -10.054688 2.875 -8.867188 2.875 -7.328125 L 2.875 -6.03125 C 2.875 -4.570312 3.175781 -3.410156 3.78125 -2.546875 C 4.394531 -1.691406 5.25 -1.265625 6.34375 -1.265625 C 7.332031 -1.265625 8.085938 -1.484375 8.609375 -1.921875 C 9.140625 -2.367188 9.488281 -3.148438 9.65625 -4.265625 Z M 11.4375 -4.265625 "/></g></g></g><g fill="#b20516" fill-opacity="1"><g transform="translate(123.827927, 43.980651)"><g><path d="M 11.890625 -6.28125 C 11.890625 -4.96875 11.664062 -3.816406 11.21875 -2.828125 C 10.78125 -1.847656 10.15625 -1.097656 9.34375 -0.578125 C 8.53125 -0.0664062 7.582031 0.1875 6.5 0.1875 C 5.445312 0.1875 4.507812 -0.0703125 3.6875 -0.59375 C 2.875 -1.113281 2.238281 -1.851562 1.78125 -2.8125 C 1.332031 -3.78125 1.101562 -4.894531 1.09375 -6.15625 L 1.09375 -7.125 C 1.09375 -8.414062 1.316406 -9.554688 1.765625 -10.546875 C 2.210938 -11.535156 2.84375 -12.289062 3.65625 -12.8125 C 4.476562 -13.34375 5.421875 -13.609375 6.484375 -13.609375 C 7.554688 -13.609375 8.503906 -13.347656 9.328125 -12.828125 C 10.148438 -12.316406 10.78125 -11.566406 11.21875 -10.578125 C 11.664062 -9.585938 11.890625 -8.4375 11.890625 -7.125 Z M 10.125 -7.15625 C 10.125 -8.738281 9.800781 -9.957031 9.15625 -10.8125 C 8.519531 -11.664062 7.628906 -12.09375 6.484375 -12.09375 C 5.367188 -12.09375 4.488281 -11.664062 3.84375 -10.8125 C 3.195312 -9.957031 2.863281 -8.773438 2.84375 -7.265625 L 2.84375 -6.28125 C 2.84375 -4.738281 3.164062 -3.523438 3.8125 -2.640625 C 4.46875 -1.753906 5.363281 -1.3125 6.5 -1.3125 C 7.644531 -1.3125 8.53125 -1.726562 9.15625 -2.5625 C 9.78125 -3.394531 10.101562 -4.59375 10.125 -6.15625 Z M 10.125 -7.15625 "/></g></g></g><g fill="#b20516" fill-opacity="1"><g transform="translate(142.474725, 43.980651)"><g><path d="M 9.15625 -6.203125 L 3.328125 -6.203125 L 3.328125 -1.453125 L 10.09375 -1.453125 L 10.09375 0 L 1.5625 0 L 1.5625 -13.4375 L 10 -13.4375 L 10 -11.96875 L 3.328125 -11.96875 L 3.328125 -7.65625 L 9.15625 -7.65625 Z M 9.15625 -6.203125 "/></g></g></g><g fill="#b20516" fill-opacity="1"><g transform="translate(158.872061, 43.980651)"><g><path d="M 11.015625 -13.4375 L 11.015625 -4.296875 C 11.003906 -3.023438 10.601562 -1.988281 9.8125 -1.1875 C 9.03125 -0.382812 7.960938 0.0664062 6.609375 0.171875 L 6.140625 0.1875 C 4.660156 0.1875 3.484375 -0.207031 2.609375 -1 C 1.742188 -1.789062 1.304688 -2.882812 1.296875 -4.28125 L 1.296875 -13.4375 L 3.046875 -13.4375 L 3.046875 -4.328125 C 3.046875 -3.359375 3.3125 -2.601562 3.84375 -2.0625 C 4.382812 -1.53125 5.148438 -1.265625 6.140625 -1.265625 C 7.140625 -1.265625 7.90625 -1.53125 8.4375 -2.0625 C 8.96875 -2.601562 9.234375 -3.359375 9.234375 -4.328125 L 9.234375 -13.4375 Z M 11.015625 -13.4375 "/></g></g></g><g fill="#b20516" fill-opacity="1"><g transform="translate(176.781331, 43.980651)"><g><path d="M 6.484375 -5.4375 L 3.328125 -5.4375 L 3.328125 0 L 1.546875 0 L 1.546875 -13.4375 L 6 -13.4375 C 7.507812 -13.4375 8.671875 -13.085938 9.484375 -12.390625 C 10.296875 -11.703125 10.703125 -10.703125 10.703125 -9.390625 C 10.703125 -8.554688 10.476562 -7.828125 10.03125 -7.203125 C 9.582031 -6.578125 8.953125 -6.113281 8.140625 -5.8125 L 11.296875 -0.109375 L 11.296875 0 L 9.40625 0 Z M 3.328125 -6.875 L 6.046875 -6.875 C 6.929688 -6.875 7.628906 -7.101562 8.140625 -7.5625 C 8.660156 -8.019531 8.921875 -8.628906 8.921875 -9.390625 C 8.921875 -10.222656 8.671875 -10.859375 8.171875 -11.296875 C 7.679688 -11.742188 6.972656 -11.96875 6.046875 -11.96875 L 3.328125 -11.96875 Z M 3.328125 -6.875 "/></g></g></g></g></g><g transform="matrix(1, 0, 0, 1, 383, 97)"><g clip-path="url(#e3a40e7940)"><g fill="#b20516" fill-opacity="1"><g transform="translate(1.017326, 17.98109)"><g><path d="M 11.875 0 L 10.09375 0 L 3.34375 -10.34375 L 3.34375 0 L 1.5625 0 L 1.5625 -13.4375 L 3.34375 -13.4375 L 10.125 -3.03125 L 10.125 -13.4375 L 11.875 -13.4375 Z M 11.875 0 "/></g></g></g><g fill="#b20516" fill-opacity="1"><g transform="translate(20.143518, 17.98109)"><g><path d="M 8.96875 -3.5 L 3.34375 -3.5 L 2.078125 0 L 0.265625 0 L 5.390625 -13.4375 L 6.9375 -13.4375 L 12.078125 0 L 10.25 0 Z M 3.890625 -4.96875 L 8.453125 -4.96875 L 6.15625 -11.25 Z M 3.890625 -4.96875 "/></g></g></g><g fill="#b20516" fill-opacity="1"><g transform="translate(38.12654, 17.98109)"><g><path d="M 10.84375 -11.96875 L 6.515625 -11.96875 L 6.515625 0 L 4.765625 0 L 4.765625 -11.96875 L 0.453125 -11.96875 L 0.453125 -13.4375 L 10.84375 -13.4375 Z M 10.84375 -11.96875 "/></g></g></g><g fill="#b20516" fill-opacity="1"><g transform="translate(55.058584, 17.98109)"><g><path d="M 11.875 0 L 10.09375 0 L 10.09375 -6.203125 L 3.328125 -6.203125 L 3.328125 0 L 1.5625 0 L 1.5625 -13.4375 L 3.328125 -13.4375 L 3.328125 -7.65625 L 10.09375 -7.65625 L 10.09375 -13.4375 L 11.875 -13.4375 Z M 11.875 0 "/></g></g></g><g fill="#b20516" fill-opacity="1"><g transform="translate(74.184776, 17.98109)"><g><path d="M 8.96875 -3.5 L 3.34375 -3.5 L 2.078125 0 L 0.265625 0 L 5.390625 -13.4375 L 6.9375 -13.4375 L 12.078125 0 L 10.25 0 Z M 3.890625 -4.96875 L 8.453125 -4.96875 L 6.15625 -11.25 Z M 3.890625 -4.96875 "/></g></g></g><g fill="#b20516" fill-opacity="1"><g transform="translate(92.167798, 17.98109)"><g><path d="M 3.34375 -1.453125 L 9.703125 -1.453125 L 9.703125 0 L 1.5625 0 L 1.5625 -13.4375 L 3.34375 -13.4375 Z M 3.34375 -1.453125 "/></g></g></g><g fill="#b20516" fill-opacity="1"><g transform="translate(107.99355, 17.98109)"><g><path d="M 3.453125 0 L 1.6875 0 L 1.6875 -13.4375 L 3.453125 -13.4375 Z M 3.453125 0 "/></g></g></g><g fill="#b20516" fill-opacity="1"><g transform="translate(118.794889, 17.98109)"><g><path d="M 9.15625 -6.203125 L 3.328125 -6.203125 L 3.328125 -1.453125 L 10.09375 -1.453125 L 10.09375 0 L 1.5625 0 L 1.5625 -13.4375 L 10 -13.4375 L 10 -11.96875 L 3.328125 -11.96875 L 3.328125 -7.65625 L 9.15625 -7.65625 Z M 9.15625 -6.203125 "/></g></g></g><g fill="#b20516" fill-opacity="1"><g transform="translate(135.192225, 17.98109)"><g/></g></g><g fill="#b20516" fill-opacity="1"><g transform="translate(145.532609, 17.98109)"><g><path d="M 11.875 0 L 10.09375 0 L 10.09375 -6.203125 L 3.328125 -6.203125 L 3.328125 0 L 1.5625 0 L 1.5625 -13.4375 L 3.328125 -13.4375 L 3.328125 -7.65625 L 10.09375 -7.65625 L 10.09375 -13.4375 L 11.875 -13.4375 Z M 11.875 0 "/></g></g></g><g clip-path="url(#0d512f36e2)"><g fill="#b20516" fill-opacity="1"><g transform="translate(164.6588, 17.98109)"><g><path d="M 9.15625 -6.203125 L 3.328125 -6.203125 L 3.328125 -1.453125 L 10.09375 -1.453125 L 10.09375 0 L 1.5625 0 L 1.5625 -13.4375 L 10 -13.4375 L 10 -11.96875 L 3.328125 -11.96875 L 3.328125 -7.65625 L 9.15625 -7.65625 Z M 6.5625 -17.140625 L 8.625 -17.140625 L 6.15625 -14.421875 L 4.78125 -14.421875 Z M 6.5625 -17.140625 "/></g></g></g></g><g fill="#b20516" fill-opacity="1"><g transform="translate(181.056137, 17.98109)"><g><path d="M 11.4375 -4.265625 C 11.269531 -2.835938 10.742188 -1.738281 9.859375 -0.96875 C 8.984375 -0.195312 7.8125 0.1875 6.34375 0.1875 C 4.757812 0.1875 3.488281 -0.378906 2.53125 -1.515625 C 1.570312 -2.660156 1.09375 -4.1875 1.09375 -6.09375 L 1.09375 -7.375 C 1.09375 -8.625 1.316406 -9.722656 1.765625 -10.671875 C 2.210938 -11.617188 2.84375 -12.34375 3.65625 -12.84375 C 4.476562 -13.351562 5.425781 -13.609375 6.5 -13.609375 C 7.925781 -13.609375 9.066406 -13.207031 9.921875 -12.40625 C 10.785156 -11.613281 11.289062 -10.515625 11.4375 -9.109375 L 9.65625 -9.109375 C 9.5 -10.179688 9.164062 -10.957031 8.65625 -11.4375 C 8.144531 -11.914062 7.425781 -12.15625 6.5 -12.15625 C 5.375 -12.15625 4.488281 -11.734375 3.84375 -10.890625 C 3.195312 -10.054688 2.875 -8.867188 2.875 -7.328125 L 2.875 -6.03125 C 2.875 -4.570312 3.175781 -3.410156 3.78125 -2.546875 C 4.394531 -1.691406 5.25 -1.265625 6.34375 -1.265625 C 7.332031 -1.265625 8.085938 -1.484375 8.609375 -1.921875 C 9.140625 -2.367188 9.488281 -3.148438 9.65625 -4.265625 Z M 11.4375 -4.265625 "/></g></g></g><g fill="#b20516" fill-opacity="1"><g transform="translate(199.011492, 17.98109)"><g><path d="M 11.875 0 L 10.09375 0 L 10.09375 -6.203125 L 3.328125 -6.203125 L 3.328125 0 L 1.5625 0 L 1.5625 -13.4375 L 3.328125 -13.4375 L 3.328125 -7.65625 L 10.09375 -7.65625 L 10.09375 -13.4375 L 11.875 -13.4375 Z M 11.875 0 "/></g></g></g><g fill="#b20516" fill-opacity="1"><g transform="translate(218.137683, 17.98109)"><g><path d="M 3.453125 0 L 1.6875 0 L 1.6875 -13.4375 L 3.453125 -13.4375 Z M 3.453125 0 "/></g></g></g><g fill="#b20516" fill-opacity="1"><g transform="translate(228.939032, 17.98109)"><g><path d="M 9.15625 -6.203125 L 3.328125 -6.203125 L 3.328125 -1.453125 L 10.09375 -1.453125 L 10.09375 0 L 1.5625 0 L 1.5625 -13.4375 L 10 -13.4375 L 10 -11.96875 L 3.328125 -11.96875 L 3.328125 -7.65625 L 9.15625 -7.65625 Z M 9.15625 -6.203125 "/></g></g></g><g fill="#b20516" fill-opacity="1"><g transform="translate(245.336368, 17.98109)"><g><path d="M 6.484375 -5.4375 L 3.328125 -5.4375 L 3.328125 0 L 1.546875 0 L 1.546875 -13.4375 L 6 -13.4375 C 7.507812 -13.4375 8.671875 -13.085938 9.484375 -12.390625 C 10.296875 -11.703125 10.703125 -10.703125 10.703125 -9.390625 C 10.703125 -8.554688 10.476562 -7.828125 10.03125 -7.203125 C 9.582031 -6.578125 8.953125 -6.113281 8.140625 -5.8125 L 11.296875 -0.109375 L 11.296875 0 L 9.40625 0 Z M 3.328125 -6.875 L 6.046875 -6.875 C 6.929688 -6.875 7.628906 -7.101562 8.140625 -7.5625 C 8.660156 -8.019531 8.921875 -8.628906 8.921875 -9.390625 C 8.921875 -10.222656 8.671875 -10.859375 8.171875 -11.296875 C 7.679688 -11.742188 6.972656 -11.96875 6.046875 -11.96875 L 3.328125 -11.96875 Z M 3.328125 -6.875 "/></g></g></g></g></g></svg>