<svg xmlns="http://www.w3.org/2000/svg" xmlns:xlink="http://www.w3.org/1999/xlink" width="500" zoomAndPan="magnify" viewBox="0 0 375 374.999991" height="500" preserveAspectRatio="xMidYMid meet" version="1.0"><defs><clipPath id="a2f7c5a1ec"><path d="M 13.398438 219 L 361.398438 219 L 361.398438 347.566406 L 13.398438 347.566406 Z M 13.398438 219 " clip-rule="nonzero"/></clipPath><clipPath id="529ca8c824"><path d="M 125 27.316406 L 250 27.316406 L 250 28 L 125 28 Z M 125 27.316406 " clip-rule="nonzero"/></clipPath></defs><rect x="-37.5" width="450" fill="#ffffff" y="-37.499999" height="449.999989" fill-opacity="1"/><rect x="-37.5" width="450" fill="#f6f4f0" y="-37.499999" height="449.999989" fill-opacity="1"/><path fill="#b20516" d="M 187.746094 243.917969 L 186.398438 243.492188 C 185.050781 243.0625 152.84375 232.792969 121.453125 209.558594 C 79.46875 178.460938 59.699219 139.019531 64.269531 95.464844 C 66.660156 72.777344 79.792969 53.125 99.429688 42.871094 C 118.398438 32.960938 148.917969 28.867188 187.421875 64.453125 C 191.839844 60.222656 201.582031 51.707031 214.476562 45.125 C 238.105469 33.0625 260.863281 33.472656 280.308594 46.300781 C 297.78125 57.832031 309.363281 76.445312 312.109375 97.394531 C 315.027344 119.640625 309.019531 142.617188 294.726562 163.824219 C 274.953125 193.148438 239.402344 219.914062 189.027344 243.335938 Z M 127.355469 43.109375 C 118.945312 43.109375 110.757812 45.175781 102.808594 49.320312 C 85.355469 58.429688 73.652344 75.96875 71.519531 96.214844 C 67.171875 137.585938 85.371094 173.71875 125.632812 203.589844 C 152.550781 223.566406 180.886719 233.917969 187.269531 236.101562 C 235.71875 213.398438 269.835938 187.707031 288.6875 159.730469 C 302.164062 139.734375 307.605469 119.074219 304.875 98.316406 C 302.402344 79.464844 291.980469 62.710938 276.285156 52.355469 C 258.96875 40.925781 239.351562 40.636719 217.957031 51.503906 C 201.582031 59.828125 190.269531 71.871094 190.167969 71.992188 L 187.644531 74.703125 L 184.964844 72.144531 C 164.871094 52.816406 145.574219 43.109375 127.355469 43.109375 Z M 127.355469 43.109375 " fill-opacity="1" fill-rule="nonzero"/><g clip-path="url(#a2f7c5a1ec)"><path fill="#b20516" d="M 354.398438 255.671875 C 349.964844 245.484375 343.34375 236.855469 335.242188 230.730469 C 311.425781 212.679688 277.699219 215.683594 237.730469 239.414062 C 213.574219 253.742188 194.261719 271.261719 187.492188 277.710938 C 180.71875 271.261719 161.390625 253.761719 137.25 239.414062 C 97.28125 215.683594 63.554688 212.699219 39.738281 230.730469 C 31.636719 236.871094 25.015625 245.503906 20.582031 255.671875 C 13.808594 271.261719 5.738281 301.082031 27.917969 325.664062 C 40.539062 339.652344 58.863281 347.363281 77.78125 347.363281 C 84.109375 347.363281 90.507812 346.496094 96.769531 344.71875 C 117.871094 338.714844 150.539062 323.976562 187.507812 287.863281 C 224.457031 323.960938 257.144531 338.714844 278.246094 344.71875 C 284.507812 346.496094 290.90625 347.363281 297.234375 347.363281 C 316.136719 347.363281 334.472656 339.652344 347.097656 325.664062 C 369.242188 301.082031 361.171875 271.261719 354.398438 255.671875 Z M 94.773438 337.726562 C 72.457031 344.074219 48.335938 337.4375 33.339844 320.785156 C 13.894531 299.222656 21.195312 272.558594 27.285156 258.570312 C 31.210938 249.527344 37.042969 241.902344 44.15625 236.53125 C 53.710938 229.296875 64.476562 226.328125 75.699219 226.328125 C 119.542969 226.328125 170.292969 271.5 182.304688 282.796875 C 146.460938 317.75 115.023438 331.960938 94.773438 337.726562 Z M 341.65625 320.804688 C 326.660156 337.4375 302.539062 344.089844 280.226562 337.742188 C 259.957031 331.976562 228.535156 317.765625 192.710938 282.8125 C 207.792969 268.617188 283.945312 200.996094 330.839844 236.546875 C 337.953125 241.9375 343.789062 249.5625 347.710938 258.585938 C 353.800781 272.558594 361.105469 299.242188 341.65625 320.804688 Z M 341.65625 320.804688 " fill-opacity="1" fill-rule="nonzero"/></g><g clip-path="url(#529ca8c824)"><path fill="#b20516" d="M 187.492188 27.195312 C 153.148438 27.195312 125.207031 -0.75 125.207031 -35.089844 C 125.207031 -69.429688 153.148438 -97.390625 187.492188 -97.390625 C 221.832031 -97.390625 249.773438 -69.445312 249.773438 -35.105469 C 249.773438 -0.765625 221.847656 27.195312 187.492188 27.195312 Z M 187.492188 -90.875 C 156.730469 -90.875 131.722656 -65.847656 131.722656 -35.105469 C 131.722656 -4.367188 156.75 20.660156 187.492188 20.660156 C 218.25 20.660156 243.257812 -4.367188 243.257812 -35.105469 C 243.257812 -65.847656 218.25 -90.875 187.492188 -90.875 Z M 187.492188 -90.875 " fill-opacity="1" fill-rule="nonzero"/></g></svg>